<svg class="diagram-root" style="background: #f5f6f6" xmlns="http://www.w3.org/2000/svg" xmlns:xlink="http://www.w3.org/1999/xlink"><style>.diagram-root { font-family: "Helvetica Neue", sans-serif; font-size: 12px; } .t { overflow: visible; } .t-bg { y: 40; fill: #fff;   } .th { fill: #005aa0;   } .tht { fill: #fff; font-size: 14px;  } .tf { fill: #323c46; overflow: visible; } .tf.pk { fill: #005aa0; font-weight: bold; } .tf.fk { font-weight: bold; } .ty { fill: #adb1b5; font-weight: normal; text-anchor: end; } .r { fill: transparent; stroke: #c3c3c3; stroke-width: 1; } .l { stroke: 1; } .i { fill: #c2c7ce; stroke: #c2c7ce; } .i.ix { fill: #afb3b6; stroke: #000; } .fa { fill: transparent; overflow: visible; } .fa .bg.hover { fill: #f7f7f7; } .c { cy: 12; r: 4; stroke: #d2d2dc; fill: #d2d2dc; } .hr { fill: transparent; stroke: #323c46; stroke-opacity: 0.035; stroke-width: 13; } .dc { stroke: #fa5a3c; fill: #fa5a3c; } .x { stroke: white; stroke-width: 1; } .hl .th { fill: #1b9bff; } .hl .tht {  } .fhl .bg { fill: #e7f4ff; } .fhls .bg {  } .r.hl { stroke: #1b9bff; } .dim { opacity: 0.25; }</style><g class="drawing-wrapper" transform="translate(254.85714285714286, 60.90909090909091) scale(1,1)"><g class="rs"><path d="M 431.59 26.09 m -1, 0 a 1,1 0 1,0 2,0 a 1,1 0 1,0 -2,0 M 431.59 26.09 m -0.5, 0 a 0.5,0.5 0 1,0 1,0 a 0.5,0.5 0 1,0 -1,0  M431.59 26.09 L431.59 26.09 419.59 26.09 M 431.59 32.09 m -1, 0 a 1,1 0 1,0 2,0 a 1,1 0 1,0 -2,0 M 431.59 32.09 m -0.5, 0 a 0.5,0.5 0 1,0 1,0 a 0.5,0.5 0 1,0 -1,0  M431.59 32.09 L431.59 32.09 424.59 26.09 431.59 20.09 M 431.59 20.09 m -1, 0 a 1,1 0 1,0 2,0 a 1,1 0 1,0 -2,0 M 431.59 20.09 m -0.5, 0 a 0.5,0.5 0 1,0 1,0 a 0.5,0.5 0 1,0 -1,0  M419.59 26.09 Q 288.39 26.09, 157.18 263.51 T -105.23 500.9285714285717 M -117.23 500.9285714285717 m -1, 0 a 1,1 0 1,0 2,0 a 1,1 0 1,0 -2,0 M -117.23 500.9285714285717 m -0.5, 0 a 0.5,0.5 0 1,0 1,0 a 0.5,0.5 0 1,0 -1,0  M-117.23 500.9285714285717 L-117.23 500.9285714285717 -105.23 500.9285714285717 M-111.23 506.9285714285717 L-111.23 506.9285714285717 -111.23 494.9285714285717" id="h1139284389" class="r"></path><path d="M 431.59 51.09 m -1, 0 a 1,1 0 1,0 2,0 a 1,1 0 1,0 -2,0 M 431.59 51.09 m -0.5, 0 a 0.5,0.5 0 1,0 1,0 a 0.5,0.5 0 1,0 -1,0  M431.59 51.09 L431.59 51.09 419.59 51.09 M 431.59 57.09 m -1, 0 a 1,1 0 1,0 2,0 a 1,1 0 1,0 -2,0 M 431.59 57.09 m -0.5, 0 a 0.5,0.5 0 1,0 1,0 a 0.5,0.5 0 1,0 -1,0  M431.59 57.09 L431.59 57.09 424.59 51.09 431.59 45.09 M 431.59 45.09 m -1, 0 a 1,1 0 1,0 2,0 a 1,1 0 1,0 -2,0 M 431.59 45.09 m -0.5, 0 a 0.5,0.5 0 1,0 1,0 a 0.5,0.5 0 1,0 -1,0  M419.59 51.09 Q 285.99 51.09, 152.39 51.37 T -114.81 51.64 M -126.81 51.64 m -1, 0 a 1,1 0 1,0 2,0 a 1,1 0 1,0 -2,0 M -126.81 51.64 m -0.5, 0 a 0.5,0.5 0 1,0 1,0 a 0.5,0.5 0 1,0 -1,0  M-126.81 51.64 L-126.81 51.64 -114.81 51.64 M-120.81 57.64 L-120.81 57.64 -120.81 45.64" id="h4223752257" class="r"></path><path d="M -224.28142857142862 245.56285714285715 m -1, 0 a 1,1 0 1,0 2,0 a 1,1 0 1,0 -2,0 M -224.28142857142862 245.56285714285715 m -0.5, 0 a 0.5,0.5 0 1,0 1,0 a 0.5,0.5 0 1,0 -1,0  M-224.28142857142862 245.56285714285715 L-224.28142857142862 245.56285714285715 -236.28142857142862 245.56285714285715 M -224.28142857142862 251.56285714285715 m -1, 0 a 1,1 0 1,0 2,0 a 1,1 0 1,0 -2,0 M -224.28142857142862 251.56285714285715 m -0.5, 0 a 0.5,0.5 0 1,0 1,0 a 0.5,0.5 0 1,0 -1,0  M-224.28142857142862 251.56285714285715 L-224.28142857142862 251.56285714285715 -231.28142857142862 245.56285714285715 -224.28142857142862 239.56285714285715 M -224.28142857142862 239.56285714285715 m -1, 0 a 1,1 0 1,0 2,0 a 1,1 0 1,0 -2,0 M -224.28142857142862 239.56285714285715 m -0.5, 0 a 0.5,0.5 0 1,0 1,0 a 0.5,0.5 0 1,0 -1,0  M-236.28142857142862 245.56285714285715 C -300.0071428571428 245.56285714285715, -294.86 51.64, -244.86 51.64 M -232.86 51.64 m -1, 0 a 1,1 0 1,0 2,0 a 1,1 0 1,0 -2,0 M -232.86 51.64 m -0.5, 0 a 0.5,0.5 0 1,0 1,0 a 0.5,0.5 0 1,0 -1,0  M-232.86 51.64 L-232.86 51.64 -244.86 51.64 M-238.86 57.64 L-238.86 57.64 -238.86 45.64" id="h4024103493" class="r"></path><path d="M -224.28142857142862 270.5628571428572 m -1, 0 a 1,1 0 1,0 2,0 a 1,1 0 1,0 -2,0 M -224.28142857142862 270.5628571428572 m -0.5, 0 a 0.5,0.5 0 1,0 1,0 a 0.5,0.5 0 1,0 -1,0  M-224.28142857142862 270.5628571428572 L-224.28142857142862 270.5628571428572 -236.28142857142862 270.5628571428572 M -224.28142857142862 276.5628571428572 m -1, 0 a 1,1 0 1,0 2,0 a 1,1 0 1,0 -2,0 M -224.28142857142862 276.5628571428572 m -0.5, 0 a 0.5,0.5 0 1,0 1,0 a 0.5,0.5 0 1,0 -1,0  M-224.28142857142862 276.5628571428572 L-224.28142857142862 276.5628571428572 -231.28142857142862 270.5628571428572 -224.28142857142862 264.5628571428572 M -224.28142857142862 264.5628571428572 m -1, 0 a 1,1 0 1,0 2,0 a 1,1 0 1,0 -2,0 M -224.28142857142862 264.5628571428572 m -0.5, 0 a 0.5,0.5 0 1,0 1,0 a 0.5,0.5 0 1,0 -1,0  M-236.28142857142862 270.5628571428572 C -286.2814285714286 270.5628571428572, -287.88857142857165 500.9285714285717, -233.60285714285683 500.9285714285717 M -221.60285714285683 500.9285714285717 m -1, 0 a 1,1 0 1,0 2,0 a 1,1 0 1,0 -2,0 M -221.60285714285683 500.9285714285717 m -0.5, 0 a 0.5,0.5 0 1,0 1,0 a 0.5,0.5 0 1,0 -1,0  M-221.60285714285683 500.9285714285717 L-221.60285714285683 500.9285714285717 -233.60285714285683 500.9285714285717 M-227.60285714285683 506.9285714285717 L-227.60285714285683 506.9285714285717 -227.60285714285683 494.9285714285717" id="h2286254435" class="r"></path><path d="M 198.22 616.82 m -1, 0 a 1,1 0 1,0 2,0 a 1,1 0 1,0 -2,0 M 198.22 616.82 m -0.5, 0 a 0.5,0.5 0 1,0 1,0 a 0.5,0.5 0 1,0 -1,0  M198.22 616.82 L198.22 616.82 186.22 616.82 M 198.22 622.82 m -1, 0 a 1,1 0 1,0 2,0 a 1,1 0 1,0 -2,0 M 198.22 622.82 m -0.5, 0 a 0.5,0.5 0 1,0 1,0 a 0.5,0.5 0 1,0 -1,0  M198.22 622.82 L198.22 622.82 191.22 616.82 198.22 610.82 M 198.22 610.82 m -1, 0 a 1,1 0 1,0 2,0 a 1,1 0 1,0 -2,0 M 198.22 610.82 m -0.5, 0 a 0.5,0.5 0 1,0 1,0 a 0.5,0.5 0 1,0 -1,0  M186.22 616.82 Q 113.36 616.82, 40.49 558.87 T -105.23 500.9285714285717 M -117.23 500.9285714285717 m -1, 0 a 1,1 0 1,0 2,0 a 1,1 0 1,0 -2,0 M -117.23 500.9285714285717 m -0.5, 0 a 0.5,0.5 0 1,0 1,0 a 0.5,0.5 0 1,0 -1,0  M-117.23 500.9285714285717 L-117.23 500.9285714285717 -105.23 500.9285714285717 M-111.23 506.9285714285717 L-111.23 506.9285714285717 -111.23 494.9285714285717" id="h3177548053" class="r"></path><path d="M 592.86 435.75 m -1, 0 a 1,1 0 1,0 2,0 a 1,1 0 1,0 -2,0 M 592.86 435.75 m -0.5, 0 a 0.5,0.5 0 1,0 1,0 a 0.5,0.5 0 1,0 -1,0  M592.86 435.75 L592.86 435.75 580.86 435.75 M 592.86 441.75 m -1, 0 a 1,1 0 1,0 2,0 a 1,1 0 1,0 -2,0 M 592.86 441.75 m -0.5, 0 a 0.5,0.5 0 1,0 1,0 a 0.5,0.5 0 1,0 -1,0  M592.86 441.75 L592.86 441.75 585.86 435.75 592.86 429.75 M 592.86 429.75 m -1, 0 a 1,1 0 1,0 2,0 a 1,1 0 1,0 -2,0 M 592.86 429.75 m -0.5, 0 a 0.5,0.5 0 1,0 1,0 a 0.5,0.5 0 1,0 -1,0  M580.86 435.75 Q 409.34 435.75, 237.82 468.34 T -105.23 500.9285714285717 M -117.23 500.9285714285717 m -1, 0 a 1,1 0 1,0 2,0 a 1,1 0 1,0 -2,0 M -117.23 500.9285714285717 m -0.5, 0 a 0.5,0.5 0 1,0 1,0 a 0.5,0.5 0 1,0 -1,0  M-117.23 500.9285714285717 L-117.23 500.9285714285717 -105.23 500.9285714285717 M-111.23 506.9285714285717 L-111.23 506.9285714285717 -111.23 494.9285714285717" id="h3000826536" class="r"></path></g><g class="hrs"></g><g class="ts"><svg width="106.05" height="100" x="-232.86" y="-5.36" id="h4180888202" class="t"><rect height="40" width="106.05" class="th"></rect><text x="13" y="25" class="tht">department</text><rect height="60" width="106.05" class="t-bg"></rect><text x="13" y="61" class="tf pk">dept_no</text><path d="M7,14A2,2 0 0,1 5,12A2,2 0 0,1 7,10A2,2 0 0,1 9,12A2,2 0 0,1 7,14M12.65,10C11.83,7.67 9.61,6 7, 6A6, 6 0 0, 0 1, 12A6, 6 0 0, 0 7, 18C9.61, 18 11.83, 16.33 12.65, 14H17V18H21V14H23V10H12.65Z" class="i pk" transform="translate(78.05, 48) scale(0.65)"></path><text x="13" y="86" class="tf">dept_name</text></svg><svg width="100.03" height="150" x="431.59" y="-30.91" id="h1090417462" class="t"><rect height="40" width="100.03" class="th"></rect><text x="13" y="25" class="tht">dept_emp</text><rect height="110" width="100.03" class="t-bg"></rect><text x="13" y="61" class="tf fk">emp_no</text><text x="13" y="86" class="tf fk">dept_no</text><text x="13" y="111" class="tf">from_date</text><text x="13" y="136" class="tf">to_date</text></svg><svg width="104.37" height="150" x="198.22" y="559.82" id="h2472833127" class="t"><rect height="40" width="104.37" class="th"></rect><text x="13" y="25" class="tht">salaries</text><rect height="110" width="104.37" class="t-bg"></rect><text x="13" y="61" class="tf pk">emp_no</text><path d="M7,14A2,2 0 0,1 5,12A2,2 0 0,1 7,10A2,2 0 0,1 9,12A2,2 0 0,1 7,14M12.65,10C11.83,7.67 9.61,6 7, 6A6, 6 0 0, 0 1, 12A6, 6 0 0, 0 7, 18C9.61, 18 11.83, 16.33 12.65, 14H17V18H21V14H23V10H12.65Z" class="i pk" transform="translate(76.37, 48) scale(0.65)"></path><text x="13" y="86" class="tf">salary</text><text x="13" y="111" class="tf">from_date</text><text x="13" y="136" class="tf">to_date</text></svg><svg width="100.03" height="150" x="592.86" y="378.75" id="h311790747" class="t"><rect height="40" width="100.03" class="th"></rect><text x="13" y="25" class="tht">titles</text><rect height="110" width="100.03" class="t-bg"></rect><text x="13" y="61" class="tf fk">emp_no</text><text x="13" y="86" class="tf">title</text><text x="13" y="111" class="tf">from_date</text><text x="13" y="136" class="tf">to_date</text></svg><svg width="104.37" height="200" x="-221.60285714285683" y="443.9285714285717" id="h1639608377" class="t"><rect height="40" width="104.37" class="th"></rect><text x="13" y="25" class="tht">employees</text><rect height="160" width="104.37" class="t-bg"></rect><text x="13" y="61" class="tf pk">emp_no</text><path d="M7,14A2,2 0 0,1 5,12A2,2 0 0,1 7,10A2,2 0 0,1 9,12A2,2 0 0,1 7,14M12.65,10C11.83,7.67 9.61,6 7, 6A6, 6 0 0, 0 1, 12A6, 6 0 0, 0 7, 18C9.61, 18 11.83, 16.33 12.65, 14H17V18H21V14H23V10H12.65Z" class="i pk" transform="translate(76.37, 48) scale(0.65)"></path><text x="13" y="86" class="tf">birth_date</text><text x="13" y="111" class="tf">first_name</text><text x="13" y="136" class="tf">last_name</text><text x="13" y="161" class="tf">gender</text><text x="13" y="186" class="tf">hire_date</text></svg><svg width="116.29" height="150" x="-224.28142857142862" y="188.56285714285715" id="h1676682957" class="t"><rect height="40" width="116.29" class="th"></rect><text x="13" y="25" class="tht">dept_manager</text><rect height="110" width="116.29" class="t-bg"></rect><text x="13" y="61" class="tf fk">dept_no</text><text x="13" y="86" class="tf pk">emp_no</text><path d="M7,14A2,2 0 0,1 5,12A2,2 0 0,1 7,10A2,2 0 0,1 9,12A2,2 0 0,1 7,14M12.65,10C11.83,7.67 9.61,6 7, 6A6, 6 0 0, 0 1, 12A6, 6 0 0, 0 7, 18C9.61, 18 11.83, 16.33 12.65, 14H17V18H21V14H23V10H12.65Z" class="i pk" transform="translate(88.29, 73) scale(0.65)"></path><text x="13" y="111" class="tf">from_date</text><text x="13" y="136" class="tf">to_date</text></svg></g></g><text class="qdbd-link" x="10" y="20">www.quickdatabasediagrams.com</text></svg>